<?xml version="1.0" encoding="UTF-8"?>
<svg xmlns="http://www.w3.org/2000/svg" xmlns:xlink="http://www.w3.org/1999/xlink" width="40pt" height="40pt" viewBox="0 0 256 256" version="1.1">
<g id="surface1">
<path style=" stroke:none;fill-rule:nonzero;fill:rgb(62.352941%,53.72549%,46.27451%);fill-opacity:1;" d="M 187.976562 120.003906 C 185.976562 110.007812 174.648438 92.679688 147.992188 96.011719 C 142.660156 96.679688 128 100.011719 128 100.011719 C 128 100.011719 113.339844 96.679688 108.007812 96.011719 C 103.59375 95.460938 99.628906 95.910156 96 95.929688 C 82.019531 96.011719 68.023438 114.160156 68.023438 120.003906 L 64.027344 139.996094 C 64.027344 183.3125 76.019531 194.640625 96.011719 215.964844 L 159.988281 215.964844 C 179.980469 194.640625 191.972656 183.3125 191.972656 139.996094 Z M 187.976562 120.003906 "/>
<path style=" stroke:none;fill-rule:nonzero;fill:rgb(81.176471%,70.196078%,58.823529%);fill-opacity:1;" d="M 73.996094 145.027344 C 65.996094 133.027344 60.195312 137.027344 46.050781 137.027344 C 26.050781 137.027344 4.714844 100.359375 6.050781 93.023438 C 6.910156 88.292969 77.996094 117.027344 77.996094 117.027344 Z M 73.996094 145.027344 "/>
<path style=" stroke:none;fill-rule:nonzero;fill:rgb(81.176471%,70.196078%,58.823529%);fill-opacity:1;" d="M 182.503906 145.027344 C 190.503906 133.027344 196.304688 137.027344 210.449219 137.027344 C 230.449219 137.027344 251.785156 100.359375 250.453125 93.023438 C 249.589844 88.292969 178.503906 117.027344 178.503906 117.027344 Z M 182.503906 145.027344 "/>
<path style=" stroke:none;fill-rule:nonzero;fill:rgb(81.176471%,70.196078%,58.823529%);fill-opacity:1;" d="M 100.132812 150.535156 C 92.808594 141.878906 81.972656 139.011719 75.929688 144.125 C 69.886719 149.242188 70.921875 160.402344 78.246094 169.054688 C 85.570312 177.707031 96.40625 180.578125 102.449219 175.460938 C 108.492188 170.347656 107.453125 159.1875 100.132812 150.535156 Z M 100.132812 150.535156 "/>
<path style=" stroke:none;fill-rule:nonzero;fill:rgb(81.176471%,70.196078%,58.823529%);fill-opacity:1;" d="M 177.757812 169.050781 C 185.082031 160.398438 186.121094 149.238281 180.078125 144.121094 C 174.03125 139.007812 163.199219 141.875 155.875 150.527344 C 148.550781 159.183594 147.511719 170.34375 153.558594 175.457031 C 159.601562 180.570312 170.4375 177.703125 177.757812 169.050781 Z M 177.757812 169.050781 "/>
<path style=" stroke:none;fill-rule:nonzero;fill:rgb(100%,92.156863%,82.352941%);fill-opacity:1;" d="M 159.988281 219.964844 C 159.988281 232.109375 143.457031 231.960938 128 231.960938 C 112.542969 231.960938 96.015625 232.109375 96.015625 219.964844 C 96.015625 200.304688 112.542969 184.3125 128 184.3125 C 143.457031 184.3125 159.988281 200.304688 159.988281 219.964844 Z M 159.988281 219.964844 "/>
<path style=" stroke:none;fill-rule:nonzero;fill:rgb(27.45098%,27.45098%,33.333333%);fill-opacity:1;" d="M 147.992188 212.089844 C 147.992188 222.78125 134.625 231.449219 128 231.449219 C 121.375 231.449219 108.007812 222.78125 108.007812 212.089844 C 108.007812 201.394531 116.960938 204.34375 128 204.34375 C 139.042969 204.34375 147.992188 201.394531 147.992188 212.089844 Z M 147.992188 212.089844 "/>
<path style=" stroke:none;fill-rule:nonzero;fill:rgb(100%,87.058824%,71.764706%);fill-opacity:1;" d="M 151.992188 231.960938 C 151.992188 243 141.25 251.953125 128 251.953125 C 114.75 251.953125 104.007812 243 104.007812 231.960938 "/>
<path style=" stroke:none;fill-rule:nonzero;fill:rgb(0%,0%,0%);fill-opacity:1;" d="M 84.019531 143.992188 C 79.605469 143.992188 76.019531 147.582031 76.019531 151.992188 C 76.019531 156.402344 79.609375 159.988281 84.019531 159.988281 C 88.425781 159.988281 92.015625 156.402344 92.015625 151.992188 C 92.015625 147.582031 88.429688 143.992188 84.019531 143.992188 Z M 84.019531 143.992188 "/>
<path style=" stroke:none;fill-rule:nonzero;fill:rgb(0%,0%,0%);fill-opacity:1;" d="M 171.984375 143.992188 C 167.574219 143.992188 163.984375 147.582031 163.984375 151.992188 C 163.984375 156.402344 167.574219 159.988281 171.984375 159.988281 C 176.394531 159.988281 179.980469 156.402344 179.980469 151.992188 C 179.980469 147.582031 176.394531 143.992188 171.984375 143.992188 Z M 171.984375 143.992188 "/>
<path style=" stroke:none;fill-rule:nonzero;fill:rgb(0%,0%,0%);fill-opacity:1;" d="M 255.886719 91.300781 C 255.644531 89.964844 254.808594 88.8125 253.597656 88.136719 C 251.558594 86.996094 249.015625 85.582031 216.675781 97.042969 C 203.226562 101.808594 190.097656 106.890625 187.140625 108.039062 C 185.359375 105.355469 183.105469 102.757812 180.359375 100.449219 C 184.960938 93.507812 198.738281 88.769531 212.089844 84.175781 C 222.710938 80.523438 233.695312 76.746094 242.125 71.402344 C 246.035156 68.925781 251.570312 62.3125 254.441406 33.597656 C 255.949219 18.527344 255.980469 4.636719 255.980469 4.054688 C 255.984375 1.84375 254.195312 0.0507812 251.984375 0.0507812 C 251.984375 0.0507812 251.980469 0.0507812 251.980469 0.0507812 C 249.773438 0.0507812 247.980469 1.839844 247.980469 4.046875 C 247.980469 4.144531 247.964844 10.925781 247.460938 19.988281 C 244.027344 12.417969 238.542969 4.855469 229.777344 0.472656 C 227.800781 -0.515625 225.398438 0.285156 224.410156 2.261719 C 223.421875 4.238281 224.222656 6.640625 226.199219 7.628906 C 242.785156 15.921875 244.945312 40.386719 245.148438 43.417969 C 245.027344 44.183594 244.90625 44.921875 244.785156 45.636719 C 244.511719 45.996094 244.296875 46.40625 244.15625 46.863281 C 239.078125 63.476562 212.714844 68.882812 193.460938 72.828125 C 187.773438 73.996094 182.867188 75 178.871094 76.183594 C 178.269531 76.363281 177.683594 76.550781 177.109375 76.742188 C 179.597656 74.460938 182.246094 72.195312 184.871094 69.949219 C 195.304688 61.027344 206.09375 51.800781 207.945312 40.695312 C 208.308594 38.515625 206.835938 36.453125 204.65625 36.089844 C 202.476562 35.730469 200.417969 37.199219 200.054688 39.378906 C 198.679688 47.613281 189.015625 55.878906 179.671875 63.867188 C 169.707031 72.386719 159.453125 81.164062 156.699219 91.65625 C 153.820312 91.523438 150.753906 91.636719 147.496094 92.046875 C 142.742188 92.640625 131.296875 95.171875 128 95.914062 C 124.703125 95.171875 113.257812 92.640625 108.503906 92.046875 C 105.160156 91.628906 102.09375 91.726562 99.371094 91.832031 C 96.691406 81.261719 86.375 72.4375 76.355469 63.867188 C 67.007812 55.878906 57.347656 47.613281 55.972656 39.378906 C 55.609375 37.199219 53.550781 35.730469 51.371094 36.089844 C 49.191406 36.453125 47.71875 38.515625 48.082031 40.695312 C 49.933594 51.804688 60.722656 61.027344 71.15625 69.949219 C 73.78125 72.195312 76.429688 74.460938 78.917969 76.742188 C 78.34375 76.550781 77.757812 76.363281 77.15625 76.1875 C 73.160156 75.003906 68.25 73.996094 62.566406 72.832031 C 43.3125 68.882812 16.945312 63.476562 11.871094 46.863281 C 11.730469 46.40625 11.515625 46 11.242188 45.636719 C 11.121094 44.921875 11 44.183594 10.878906 43.417969 C 11.082031 40.382812 13.242188 15.921875 29.824219 7.628906 C 31.800781 6.640625 32.601562 4.238281 31.613281 2.261719 C 30.625 0.285156 28.226562 -0.515625 26.25 0.472656 C 17.484375 4.855469 12 12.417969 8.570312 19.988281 C 8.066406 10.929688 8.050781 4.140625 8.050781 4.046875 C 8.046875 1.835938 6.257812 0.0507812 4.046875 0.0507812 C 4.046875 0.0507812 4.046875 0.0507812 4.042969 0.0507812 C 1.835938 0.0507812 0.046875 1.84375 0.046875 4.054688 C 0.0507812 4.636719 0.078125 18.527344 1.585938 33.597656 C 4.460938 62.3125 9.992188 68.925781 13.902344 71.402344 C 22.335938 76.746094 33.320312 80.523438 43.941406 84.175781 C 57.648438 88.890625 71.804688 93.757812 76.019531 101.003906 C 75.238281 101.707031 74.539062 102.378906 73.929688 102.984375 C 72.363281 104.5625 70.792969 106.363281 69.378906 108.242188 C 68.097656 107.738281 53.898438 102.207031 39.324219 97.042969 C 6.984375 85.578125 4.445312 86.996094 2.402344 88.136719 C 1.191406 88.8125 0.355469 89.964844 0.113281 91.296875 C -1.0625 97.765625 7.144531 112.476562 15.425781 122.394531 C 22.125 130.425781 32.53125 139.996094 44.035156 139.996094 C 49.65625 139.996094 54.042969 138.753906 57.246094 137.847656 C 58.113281 137.601562 59.121094 137.316406 59.863281 137.160156 C 59.945312 137.71875 60.023438 138.609375 60.023438 139.996094 C 60.023438 160.398438 62.605469 174.867188 68.394531 186.898438 C 73.828125 198.195312 81.492188 206.351562 91.195312 216.679688 L 92.085938 217.625 C 92.039062 218.398438 92.011719 219.175781 92.011719 219.964844 C 92.011719 224.113281 93.53125 229.3125 100.027344 232.539062 C 100.390625 245.5 112.792969 255.949219 128 255.949219 C 143.207031 255.949219 155.609375 245.5 155.972656 232.539062 C 162.46875 229.3125 163.988281 224.113281 163.988281 219.964844 C 163.988281 219.175781 163.957031 218.398438 163.914062 217.625 L 164.804688 216.679688 C 174.507812 206.351562 182.171875 198.195312 187.605469 186.898438 C 193.390625 174.867188 195.972656 160.402344 195.972656 139.996094 C 195.972656 138.609375 196.050781 137.71875 196.136719 137.160156 C 196.878906 137.316406 197.886719 137.601562 198.753906 137.847656 C 201.957031 138.753906 206.34375 139.996094 211.964844 139.996094 C 223.46875 139.996094 233.871094 130.425781 240.574219 122.394531 C 248.855469 112.476562 257.0625 97.765625 255.886719 91.300781 Z M 181.144531 83.855469 C 184.808594 82.769531 189.5625 81.796875 195.070312 80.667969 C 197.292969 80.210938 199.601562 79.734375 201.964844 79.230469 C 189.664062 83.625 178.785156 88.355469 173.699219 96.015625 C 171.414062 94.835938 168.910156 93.847656 166.175781 93.105469 C 168.484375 90.179688 172.925781 86.292969 181.144531 83.855469 Z M 54.066406 79.230469 C 56.425781 79.734375 58.738281 80.210938 60.960938 80.667969 C 66.464844 81.792969 71.222656 82.769531 74.882812 83.855469 C 82.953125 86.246094 87.367188 89.992188 89.710938 92.894531 C 87.089844 93.671875 84.644531 94.851562 82.445312 96.191406 C 77.410156 88.425781 66.460938 83.65625 54.066406 79.230469 Z M 128 247.953125 C 118.289062 247.953125 110.175781 242.382812 108.382812 235.023438 C 114.160156 235.957031 120.851562 235.960938 126.878906 235.960938 L 129.121094 235.960938 C 135.152344 235.960938 141.839844 235.957031 147.617188 235.023438 C 145.824219 242.382812 137.710938 247.953125 128 247.953125 Z M 112.007812 212.089844 C 112.007812 210.832031 112.164062 209.222656 112.898438 208.695312 C 113.570312 208.214844 115.058594 207.972656 117.328125 207.972656 C 118.671875 207.972656 120.203125 208.050781 121.820312 208.136719 C 123.691406 208.230469 125.816406 208.34375 128 208.34375 C 130.183594 208.34375 132.308594 208.230469 134.179688 208.136719 C 135.796875 208.050781 137.328125 207.972656 138.671875 207.972656 C 140.941406 207.972656 142.433594 208.214844 143.101562 208.695312 C 143.835938 209.222656 143.992188 210.832031 143.992188 212.089844 C 143.992188 220.472656 132.378906 227.449219 128 227.449219 C 123.617188 227.449219 112.007812 220.472656 112.007812 212.089844 Z M 144.742188 227.332031 C 148.898438 223.320312 151.992188 218.0625 151.992188 212.089844 C 151.992188 199.96875 141.96875 199.96875 138.671875 199.96875 C 137.117188 199.96875 135.488281 200.054688 133.761719 200.144531 C 131.898438 200.242188 129.976562 200.34375 128 200.34375 C 126.023438 200.34375 124.097656 200.242188 122.238281 200.144531 C 120.511719 200.054688 118.882812 199.96875 117.328125 199.96875 C 114.03125 199.96875 104.007812 199.96875 104.007812 212.089844 C 104.007812 218.078125 107.117188 223.347656 111.289062 227.363281 C 109.675781 227.160156 108.15625 226.894531 106.78125 226.535156 C 100.832031 224.984375 100.011719 222.460938 100.011719 219.964844 C 100.011719 202.136719 115.058594 188.3125 128 188.3125 C 140.941406 188.3125 155.988281 202.136719 155.988281 219.964844 C 155.988281 224.386719 152.316406 226.4375 144.742188 227.332031 Z M 232.21875 119.808594 C 225.039062 127.667969 217.847656 131.996094 211.96875 131.996094 C 207.457031 131.996094 203.839844 130.972656 200.933594 130.152344 C 197.363281 129.140625 193.988281 128.1875 191.132812 130.34375 C 188.355469 132.441406 187.972656 136.222656 187.972656 139.996094 C 187.972656 178.019531 178.824219 189.945312 162.113281 207.851562 C 156.917969 191.496094 141.796875 180.3125 128 180.3125 C 114.203125 180.3125 99.082031 191.496094 93.886719 207.851562 C 77.175781 189.945312 68.027344 178.019531 68.027344 139.996094 C 68.027344 136.222656 67.644531 132.441406 64.867188 130.34375 C 62.011719 128.183594 58.636719 129.140625 55.066406 130.152344 C 52.160156 130.972656 48.546875 131.996094 44.03125 131.996094 C 38.15625 131.996094 30.964844 127.667969 23.78125 119.808594 C 15.679688 110.941406 10.421875 100.980469 8.644531 95.796875 C 17.917969 97.726562 42.703125 106.425781 65.199219 115.199219 C 64.460938 116.925781 64.023438 118.566406 64.023438 120.003906 C 64.023438 122.210938 65.816406 124.007812 68.023438 124.007812 C 70.234375 124.007812 72.023438 122.21875 72.023438 120.007812 C 72.132812 116.507812 83.59375 100.589844 95.386719 99.960938 C 95.589844 99.992188 95.796875 100.011719 96.007812 100.011719 C 96.09375 100.011719 96.183594 100.011719 96.269531 100.003906 C 96.480469 99.992188 96.683594 99.957031 96.882812 99.914062 C 97.71875 99.894531 98.5625 99.867188 99.386719 99.835938 C 101.996094 99.734375 104.699219 99.628906 107.511719 99.980469 C 112.585938 100.617188 126.96875 103.878906 127.113281 103.914062 C 127.140625 103.917969 127.167969 103.921875 127.191406 103.925781 C 127.269531 103.941406 127.347656 103.957031 127.425781 103.964844 C 127.480469 103.976562 127.535156 103.980469 127.589844 103.988281 C 127.664062 103.996094 127.738281 104 127.8125 104.003906 C 127.875 104.007812 127.9375 104.007812 127.996094 104.007812 C 128.0625 104.007812 128.128906 104.007812 128.195312 104.003906 C 128.265625 104 128.335938 103.996094 128.402344 103.988281 C 128.460938 103.980469 128.519531 103.972656 128.578125 103.964844 C 128.65625 103.953125 128.730469 103.941406 128.804688 103.925781 C 128.832031 103.921875 128.859375 103.917969 128.886719 103.914062 C 129.03125 103.878906 143.414062 100.617188 148.488281 99.980469 C 152.140625 99.523438 155.570312 99.476562 158.78125 99.8125 C 158.847656 99.832031 158.910156 99.855469 158.976562 99.875 C 158.980469 99.875 158.984375 99.875 158.988281 99.878906 C 159.132812 99.917969 159.285156 99.945312 159.4375 99.96875 C 159.492188 99.976562 159.546875 99.980469 159.605469 99.984375 C 159.65625 99.992188 159.707031 100 159.761719 100.003906 C 159.839844 100.007812 159.917969 100.011719 159.996094 100.011719 C 160.003906 100.011719 160.011719 100.015625 160.019531 100.015625 C 160.027344 100.015625 160.03125 100.011719 160.039062 100.011719 C 160.121094 100.011719 160.203125 100.003906 160.285156 100 C 165.828125 100.816406 170.660156 102.855469 174.722656 106.125 C 180.347656 110.652344 183.230469 116.667969 184.054688 120.789062 C 184.433594 122.6875 186.105469 124.003906 187.972656 124.003906 C 188.230469 124.003906 188.496094 123.980469 188.761719 123.925781 C 190.925781 123.492188 192.332031 121.386719 191.898438 119.21875 C 191.640625 117.925781 191.265625 116.578125 190.769531 115.210938 C 213.265625 106.4375 238.058594 97.730469 247.34375 95.800781 C 245.5625 101.011719 240.308594 110.957031 232.21875 119.808594 Z M 232.21875 119.808594 "/>
</g>
</svg>
