<?xml version="1.0" encoding="UTF-8"?>
<svg xmlns="http://www.w3.org/2000/svg" xmlns:xlink="http://www.w3.org/1999/xlink" width="50pt" height="50pt" viewBox="0 0 256 256" version="1.1">
<g id="surface1">
<path style=" stroke:none;fill-rule:nonzero;fill:rgb(52.156863%,52.941176%,55.294118%);fill-opacity:1;" d="M 77.914062 16.695312 L 61.21875 16.695312 C 28.996094 16.695312 2.78125 42.910156 2.78125 75.128906 L 2.78125 133.566406 C 2.78125 151.976562 17.761719 166.957031 36.175781 166.957031 C 50.941406 166.957031 64.125 157.0625 68.238281 142.898438 Z M 77.914062 16.695312 "/>
<path style=" stroke:none;fill-rule:nonzero;fill:rgb(49.411765%,49.803922%,52.156863%);fill-opacity:1;" d="M 194.78125 16.695312 L 178.085938 16.695312 L 187.761719 142.898438 C 191.875 157.0625 205.058594 166.957031 219.824219 166.957031 C 238.238281 166.957031 253.21875 151.976562 253.21875 133.566406 L 253.21875 75.128906 C 253.21875 42.910156 227.003906 16.695312 194.78125 16.695312 Z M 194.78125 16.695312 "/>
<path style=" stroke:none;fill-rule:nonzero;fill:rgb(96.862745%,89.411765%,70.196078%);fill-opacity:1;" d="M 77.914062 217.050781 C 73.457031 217.050781 69.265625 215.308594 66.113281 212.15625 C 62.960938 209.003906 61.226562 204.8125 61.226562 200.347656 C 61.226562 195.882812 62.960938 191.691406 66.109375 188.546875 C 73.609375 181.039062 77.914062 170.652344 77.914062 160.042969 L 111.664062 158.601562 C 111.304688 179.523438 103.84375 198.039062 89.71875 212.152344 C 86.558594 215.308594 82.371094 217.050781 77.914062 217.050781 Z M 77.914062 217.050781 "/>
<path style=" stroke:none;fill-rule:nonzero;fill:rgb(63.921569%,64.705882%,68.235294%);fill-opacity:1;" d="M 128 0 C 77.355469 0 36.175781 41.183594 36.175781 91.824219 C 36.175781 120.988281 49.585938 147.757812 72.90625 165.285156 C 74.351562 166.34375 76.074219 166.957031 77.914062 166.957031 L 102.957031 166.957031 L 102.957031 247.652344 C 102.957031 252.269531 106.683594 256 111.304688 256 L 144.695312 256 C 149.316406 256 153.042969 252.273438 153.042969 247.652344 L 153.042969 166.957031 L 178.085938 166.957031 C 179.925781 166.957031 181.648438 166.34375 183.097656 165.285156 C 206.414062 147.757812 219.828125 120.988281 219.828125 91.824219 C 219.824219 41.183594 178.644531 0 128 0 Z M 128 0 "/>
<path style=" stroke:none;fill-rule:nonzero;fill:rgb(90.196078%,78.431373%,57.254902%);fill-opacity:1;" d="M 178.085938 217.050781 C 173.628906 217.050781 169.441406 215.308594 166.289062 212.15625 C 152.15625 198.039062 144.695312 179.523438 144.695312 158.609375 L 177.726562 160.035156 C 178.085938 170.652344 182.390625 181.039062 189.890625 188.542969 C 193.039062 191.691406 194.773438 195.882812 194.773438 200.347656 C 194.773438 204.8125 193.039062 209.007812 189.890625 212.148438 C 186.734375 215.308594 182.542969 217.050781 178.085938 217.050781 Z M 178.085938 217.050781 "/>
<path style=" stroke:none;fill-rule:nonzero;fill:rgb(60%,61.176471%,64.313725%);fill-opacity:1;" d="M 219.824219 91.824219 C 219.824219 120.988281 206.414062 147.757812 183.09375 165.285156 C 181.648438 166.34375 179.925781 166.957031 178.085938 166.957031 L 153.042969 166.957031 L 153.042969 247.652344 C 153.042969 252.269531 149.316406 256 144.695312 256 L 128 256 L 128 0 C 178.644531 0 219.824219 41.183594 219.824219 91.824219 Z M 219.824219 91.824219 "/>
<path style=" stroke:none;fill-rule:nonzero;fill:rgb(41.176471%,41.960784%,43.529412%);fill-opacity:1;" d="M 102.957031 91.824219 C 102.957031 96.4375 99.21875 100.175781 94.609375 100.175781 C 89.996094 100.175781 86.261719 96.4375 86.261719 91.824219 C 86.261719 87.214844 89.996094 83.476562 94.609375 83.476562 C 99.21875 83.476562 102.957031 87.214844 102.957031 91.824219 Z M 102.957031 91.824219 "/>
<path style=" stroke:none;fill-rule:nonzero;fill:rgb(38.039216%,38.431373%,40.392157%);fill-opacity:1;" d="M 169.738281 91.824219 C 169.738281 96.4375 166.003906 100.175781 161.390625 100.175781 C 156.78125 100.175781 153.042969 96.4375 153.042969 91.824219 C 153.042969 87.214844 156.78125 83.476562 161.390625 83.476562 C 166.003906 83.476562 169.738281 87.214844 169.738281 91.824219 Z M 169.738281 91.824219 "/>
</g>
</svg>
