<?xml version="1.0" encoding="UTF-8"?>
<svg xmlns="http://www.w3.org/2000/svg" xmlns:xlink="http://www.w3.org/1999/xlink" width="50pt" height="50pt" viewBox="0 0 24 24" version="1.1">
<defs>
<filter id="alpha" filterUnits="objectBoundingBox" x="0%" y="0%" width="100%" height="100%">
  <feColorMatrix type="matrix" in="SourceGraphic" values="0 0 0 0 1 0 0 0 0 1 0 0 0 0 1 0 0 0 1 0"/>
</filter>
<mask id="mask0">
  <g filter="url(#alpha)">
<rect x="0" y="0" width="24" height="24" style="fill:rgb(0%,0%,0%);fill-opacity:0.14902;stroke:none;"/>
  </g>
</mask>
<clipPath id="clip1">
  <rect x="0" y="0" width="24" height="24"/>
</clipPath>
<g id="surface5" clip-path="url(#clip1)">
<path style=" stroke:none;fill-rule:nonzero;fill:rgb(27.058824%,25.490196%,23.529412%);fill-opacity:1;" d="M 19.5 22.75 C 19.5 22.335938 16.140625 22 12 22 C 7.859375 22 4.5 22.335938 4.5 22.75 C 4.5 23.164062 7.859375 23.5 12 23.5 C 16.140625 23.5 19.5 23.164062 19.5 22.75 Z M 19.5 22.75 "/>
</g>
</defs>
<g id="surface1">
<use xlink:href="#surface5" mask="url(#mask0)"/>
<path style=" stroke:none;fill-rule:nonzero;fill:rgb(42.745098%,83.921569%,15.294118%);fill-opacity:1;" d="M 12 15.609375 C 15.28125 15.609375 17.941406 18.269531 17.941406 21.550781 L 17.941406 22.5 L 6.058594 22.5 L 6.058594 21.550781 C 6.058594 18.269531 8.71875 15.609375 12 15.609375 Z M 12 15.609375 "/>
<path style=" stroke:none;fill-rule:nonzero;fill:rgb(27.45098%,69.019608%,0%);fill-opacity:1;" d="M 12 15.609375 C 8.71875 15.609375 6.058594 18.269531 6.058594 21.550781 L 6.058594 22.5 L 6.136719 22.5 C 6.582031 19.609375 9.074219 17.472656 12 17.472656 C 14.925781 17.472656 17.417969 19.609375 17.863281 22.5 L 17.941406 22.5 L 17.941406 21.550781 C 17.941406 18.269531 15.28125 15.609375 12 15.609375 Z M 12 15.609375 "/>
<path style="fill:none;stroke-width:1;stroke-linecap:round;stroke-linejoin:round;stroke:rgb(27.058824%,25.490196%,23.529412%);stroke-opacity:1;stroke-miterlimit:4;" d="M 24 31.21875 C 30.5625 31.21875 35.882812 36.539062 35.882812 43.101562 L 35.882812 45 L 12.117188 45 L 12.117188 43.101562 C 12.117188 36.539062 17.4375 31.21875 24 31.21875 Z M 24 31.21875 " transform="matrix(0.5,0,0,0.5,0,0)"/>
<path style=" stroke:none;fill-rule:nonzero;fill:rgb(0%,72.156863%,94.117647%);fill-opacity:1;" d="M 14.96875 16.40625 L 14.96875 19.585938 C 14.96875 19.859375 14.746094 20.085938 14.46875 20.085938 L 9.53125 20.085938 C 9.253906 20.085938 9.03125 19.859375 9.03125 19.585938 L 9.03125 16.40625 C 8.636719 16.632812 8.269531 16.90625 7.933594 17.214844 L 7.933594 22.5 L 16.066406 22.5 L 16.066406 17.214844 C 15.730469 16.90625 15.363281 16.632812 14.96875 16.40625 Z M 14.96875 16.40625 "/>
<path style=" stroke:none;fill-rule:nonzero;fill:rgb(0%,62.352941%,85.098039%);fill-opacity:1;" d="M 14.96875 18.261719 C 15.363281 18.488281 15.730469 18.761719 16.066406 19.074219 L 16.066406 17.214844 C 15.730469 16.90625 15.363281 16.632812 14.96875 16.40625 Z M 14.96875 18.261719 "/>
<path style=" stroke:none;fill-rule:nonzero;fill:rgb(0%,62.352941%,85.098039%);fill-opacity:1;" d="M 9.03125 18.261719 L 9.03125 16.40625 C 8.636719 16.632812 8.269531 16.90625 7.933594 17.214844 L 7.933594 19.074219 C 8.269531 18.761719 8.636719 18.488281 9.03125 18.261719 Z M 9.03125 18.261719 "/>
<path style="fill:none;stroke-width:1;stroke-linecap:round;stroke-linejoin:round;stroke:rgb(27.058824%,25.490196%,23.529412%);stroke-opacity:1;stroke-miterlimit:4;" d="M 29.9375 32.8125 L 29.9375 39.171875 C 29.9375 39.71875 29.492188 40.171875 28.9375 40.171875 L 19.0625 40.171875 C 18.507812 40.171875 18.0625 39.71875 18.0625 39.171875 L 18.0625 32.8125 C 17.273438 33.265625 16.539062 33.8125 15.867188 34.429688 L 15.867188 45 L 32.132812 45 L 32.132812 34.429688 C 31.460938 33.8125 30.726562 33.265625 29.9375 32.8125 Z M 29.9375 32.8125 " transform="matrix(0.5,0,0,0.5,0,0)"/>
<path style="fill-rule:nonzero;fill:rgb(27.45098%,69.019608%,0%);fill-opacity:1;stroke-width:1;stroke-linecap:round;stroke-linejoin:round;stroke:rgb(27.058824%,25.490196%,23.529412%);stroke-opacity:1;stroke-miterlimit:4;" d="M 24 30 C 24 30 19 29.9375 19 32.789062 C 19.09375 34.890625 19.851562 36.914062 21.15625 38.5625 L 24 36.132812 L 26.890625 38.5625 C 28.203125 36.914062 28.953125 34.890625 29.046875 32.789062 C 29.046875 29.9375 24 30 24 30 Z M 24 30 " transform="matrix(0.5,0,0,0.5,0,0)"/>
<path style=" stroke:none;fill-rule:nonzero;fill:rgb(100%,80.784314%,74.901961%);fill-opacity:1;" d="M 12 18.066406 L 10.875 16.941406 C 10.78125 16.84375 10.730469 16.71875 10.730469 16.585938 L 10.730469 15.085938 C 10.730469 14.382812 11.296875 13.816406 12 13.816406 C 12.335938 13.816406 12.660156 13.949219 12.898438 14.1875 C 13.136719 14.429688 13.269531 14.753906 13.269531 15.089844 L 13.269531 16.589844 C 13.269531 16.722656 13.21875 16.851562 13.125 16.945312 Z M 12 18.066406 "/>
<path style=" stroke:none;fill-rule:nonzero;fill:rgb(100%,70.980392%,61.960784%);fill-opacity:1;" d="M 12 13.816406 C 11.664062 13.816406 11.339844 13.949219 11.101562 14.1875 C 10.863281 14.429688 10.730469 14.753906 10.730469 15.089844 L 10.730469 15.386719 C 10.730469 16.085938 11.296875 16.65625 12 16.65625 C 12.703125 16.65625 13.269531 16.085938 13.269531 15.386719 L 13.269531 15.089844 C 13.269531 14.753906 13.136719 14.429688 12.898438 14.1875 C 12.660156 13.949219 12.335938 13.816406 12 13.816406 Z M 12 13.816406 "/>
<path style="fill:none;stroke-width:1;stroke-linecap:round;stroke-linejoin:round;stroke:rgb(27.058824%,25.490196%,23.529412%);stroke-opacity:1;stroke-miterlimit:4;" d="M 24 36.132812 L 21.75 33.882812 C 21.5625 33.6875 21.460938 33.4375 21.460938 33.171875 L 21.460938 30.171875 C 21.460938 28.765625 22.59375 27.632812 24 27.632812 C 24.671875 27.632812 25.320312 27.898438 25.796875 28.375 C 26.273438 28.859375 26.539062 29.507812 26.539062 30.179688 L 26.539062 33.179688 C 26.539062 33.445312 26.4375 33.703125 26.25 33.890625 Z M 24 36.132812 " transform="matrix(0.5,0,0,0.5,0,0)"/>
<path style="fill:none;stroke-width:1;stroke-linecap:round;stroke-linejoin:round;stroke:rgb(27.058824%,25.490196%,23.529412%);stroke-opacity:1;stroke-miterlimit:4;" d="M 24 36.132812 L 24 40.171875 " transform="matrix(0.5,0,0,0.5,0,0)"/>
<path style="fill-rule:nonzero;fill:rgb(65.882353%,42.352941%,30.196078%);fill-opacity:1;stroke-width:1;stroke-linecap:round;stroke-linejoin:round;stroke:rgb(27.058824%,25.490196%,23.529412%);stroke-opacity:1;stroke-miterlimit:4;" d="M 24 6.90625 C 29.421875 6.90625 33.820312 11.304688 33.820312 16.726562 L 33.820312 21.867188 L 14.179688 21.867188 L 14.179688 16.726562 C 14.179688 11.304688 18.578125 6.90625 24 6.90625 Z M 24 6.90625 " transform="matrix(0.5,0,0,0.5,0,0)"/>
<path style="fill-rule:nonzero;fill:rgb(100%,80.784314%,74.901961%);fill-opacity:1;stroke-width:1;stroke-linecap:round;stroke-linejoin:round;stroke:rgb(27.058824%,25.490196%,23.529412%);stroke-opacity:1;stroke-miterlimit:4;" d="M 34.867188 21.117188 C 34.773438 20.367188 34.21875 19.757812 33.476562 19.578125 L 32.890625 19.421875 C 32 19.164062 31.382812 18.351562 31.390625 17.421875 L 31.390625 15.382812 C 31.390625 14.53125 30.820312 13.789062 30 13.570312 C 28.09375 14.328125 26.054688 14.703125 24 14.65625 C 21.945312 14.703125 19.90625 14.328125 18 13.570312 C 17.179688 13.789062 16.601562 14.53125 16.601562 15.382812 L 16.601562 17.4375 C 16.609375 18.367188 15.992188 19.1875 15.101562 19.4375 L 14.507812 19.601562 C 13.773438 19.773438 13.21875 20.390625 13.117188 21.140625 C 13.0625 21.648438 13.234375 22.164062 13.578125 22.546875 C 13.921875 22.929688 14.414062 23.140625 14.929688 23.140625 L 15.039062 23.140625 C 15.523438 27.71875 19.382812 31.195312 23.992188 31.195312 C 28.59375 31.195312 32.453125 27.71875 32.9375 23.140625 L 33.046875 23.140625 C 33.570312 23.148438 34.070312 22.929688 34.414062 22.539062 C 34.765625 22.15625 34.929688 21.640625 34.867188 21.117188 Z M 34.867188 21.117188 " transform="matrix(0.5,0,0,0.5,0,0)"/>
<path style="fill-rule:nonzero;fill:rgb(27.058824%,25.490196%,23.529412%);fill-opacity:1;stroke-width:1;stroke-linecap:round;stroke-linejoin:round;stroke:rgb(27.058824%,25.490196%,23.529412%);stroke-opacity:1;stroke-miterlimit:4;" d="M 18.570312 20.90625 C 18.570312 21.335938 18.914062 21.679688 19.34375 21.679688 C 19.765625 21.679688 20.109375 21.335938 20.109375 20.90625 C 20.109375 20.484375 19.765625 20.140625 19.34375 20.140625 C 19.132812 20.140625 18.9375 20.21875 18.789062 20.359375 C 18.648438 20.507812 18.570312 20.703125 18.570312 20.90625 Z M 18.570312 20.90625 " transform="matrix(0.5,0,0,0.5,0,0)"/>
<path style="fill-rule:nonzero;fill:rgb(27.058824%,25.490196%,23.529412%);fill-opacity:1;stroke-width:1;stroke-linecap:round;stroke-linejoin:round;stroke:rgb(27.058824%,25.490196%,23.529412%);stroke-opacity:1;stroke-miterlimit:4;" d="M 29.429688 20.90625 C 29.429688 21.335938 29.085938 21.679688 28.65625 21.679688 C 28.234375 21.679688 27.890625 21.335938 27.890625 20.90625 C 27.890625 20.484375 28.234375 20.140625 28.65625 20.140625 C 28.867188 20.140625 29.0625 20.21875 29.210938 20.359375 C 29.351562 20.507812 29.429688 20.703125 29.429688 20.90625 Z M 29.429688 20.90625 " transform="matrix(0.5,0,0,0.5,0,0)"/>
<path style=" stroke:none;fill-rule:nonzero;fill:rgb(100%,38.431373%,25.882353%);fill-opacity:1;" d="M 10.578125 12.800781 C 10.515625 12.800781 10.453125 12.828125 10.414062 12.878906 C 10.371094 12.925781 10.355469 12.992188 10.363281 13.054688 C 10.503906 13.847656 11.195312 14.429688 12 14.429688 C 12.804688 14.429688 13.496094 13.847656 13.636719 13.054688 C 13.644531 12.992188 13.628906 12.925781 13.585938 12.878906 C 13.542969 12.832031 13.484375 12.800781 13.421875 12.800781 Z M 10.578125 12.800781 "/>
<path style=" stroke:none;fill-rule:nonzero;fill:rgb(100%,65.098039%,58.039216%);fill-opacity:1;" d="M 12 13.5 C 11.546875 13.480469 11.105469 13.617188 10.738281 13.886719 C 11.058594 14.238281 11.511719 14.441406 11.988281 14.441406 C 12.46875 14.441406 12.921875 14.238281 13.238281 13.886719 C 12.882812 13.621094 12.445312 13.488281 12 13.5 Z M 12 13.5 "/>
<path style="fill:none;stroke-width:1;stroke-linecap:round;stroke-linejoin:round;stroke:rgb(27.058824%,25.490196%,23.529412%);stroke-opacity:1;stroke-miterlimit:4;" d="M 21.15625 25.601562 C 21.03125 25.601562 20.90625 25.65625 20.828125 25.757812 C 20.742188 25.851562 20.710938 25.984375 20.726562 26.109375 C 21.007812 27.695312 22.390625 28.859375 24 28.859375 C 25.609375 28.859375 26.992188 27.695312 27.273438 26.109375 C 27.289062 25.984375 27.257812 25.851562 27.171875 25.757812 C 27.085938 25.664062 26.96875 25.601562 26.84375 25.601562 Z M 21.15625 25.601562 " transform="matrix(0.5,0,0,0.5,0,0)"/>
<path style=" stroke:none;fill-rule:nonzero;fill:rgb(100%,70.980392%,61.960784%);fill-opacity:1;" d="M 9.53125 12.09375 C 9.53125 11.929688 9.304688 11.796875 9.03125 11.796875 C 8.753906 11.796875 8.53125 11.929688 8.53125 12.09375 C 8.53125 12.261719 8.753906 12.394531 9.03125 12.394531 C 9.304688 12.394531 9.53125 12.261719 9.53125 12.09375 Z M 9.53125 12.09375 "/>
<path style=" stroke:none;fill-rule:nonzero;fill:rgb(100%,70.980392%,61.960784%);fill-opacity:1;" d="M 15.46875 12.09375 C 15.46875 11.929688 15.246094 11.796875 14.96875 11.796875 C 14.695312 11.796875 14.46875 11.929688 14.46875 12.09375 C 14.46875 12.261719 14.695312 12.394531 14.96875 12.394531 C 15.246094 12.394531 15.46875 12.261719 15.46875 12.09375 Z M 15.46875 12.09375 "/>
<path style=" stroke:none;fill-rule:nonzero;fill:rgb(87.058824%,73.333333%,49.411765%);fill-opacity:1;" d="M 12 2.179688 C 14.710938 2.179688 16.910156 4.378906 16.910156 7.089844 L 16.910156 7.183594 L 7.089844 7.183594 L 7.089844 7.089844 C 7.089844 4.378906 9.289062 2.179688 12 2.179688 Z M 12 2.179688 "/>
<path style=" stroke:none;fill-rule:nonzero;fill:rgb(94.117647%,83.529412%,65.882353%);fill-opacity:1;" d="M 12 2.179688 C 9.289062 2.183594 7.089844 4.382812 7.089844 7.09375 L 7.089844 7.183594 L 7.238281 7.183594 C 7.78125 4.996094 9.746094 3.457031 12 3.453125 C 14.253906 3.457031 16.21875 4.996094 16.761719 7.183594 L 16.910156 7.183594 L 16.910156 7.09375 C 16.910156 4.382812 14.710938 2.183594 12 2.179688 Z M 12 2.179688 "/>
<path style="fill:none;stroke-width:1;stroke-linecap:round;stroke-linejoin:round;stroke:rgb(27.058824%,25.490196%,23.529412%);stroke-opacity:1;stroke-miterlimit:4;" d="M 24 4.359375 C 29.421875 4.359375 33.820312 8.757812 33.820312 14.179688 L 33.820312 14.367188 L 14.179688 14.367188 L 14.179688 14.179688 C 14.179688 8.757812 18.578125 4.359375 24 4.359375 Z M 24 4.359375 " transform="matrix(0.5,0,0,0.5,0,0)"/>
<path style=" stroke:none;fill-rule:nonzero;fill:rgb(87.058824%,73.333333%,49.411765%);fill-opacity:1;" d="M 12 4.683594 C 7 4.683594 2.933594 6.253906 2.933594 8.183594 C 2.933594 9.351562 4.40625 10.375 6.648438 11.015625 C 6.546875 10.796875 6.535156 10.550781 6.617188 10.324219 C 6.699219 10.097656 6.871094 9.917969 7.089844 9.820312 L 7.089844 9.058594 C 7.089844 8.105469 9.289062 7.328125 12 7.328125 C 14.710938 7.328125 16.910156 8.105469 16.910156 9.058594 L 16.910156 9.863281 C 17.1875 9.992188 17.375 10.257812 17.410156 10.558594 C 17.421875 10.71875 17.394531 10.878906 17.324219 11.023438 C 19.570312 10.386719 21.039062 9.359375 21.039062 8.195312 C 21.066406 6.253906 17 4.683594 12 4.683594 Z M 12 4.683594 "/>
<path style=" stroke:none;fill-rule:nonzero;fill:rgb(94.117647%,83.529412%,65.882353%);fill-opacity:1;" d="M 12 4.683594 C 7 4.683594 2.933594 6.253906 2.933594 8.183594 C 2.933594 9.128906 3.898438 9.980469 5.460938 10.609375 C 4.996094 10.332031 4.695312 9.847656 4.644531 9.308594 C 4.644531 7.734375 7.941406 6.460938 12 6.460938 C 16.058594 6.460938 19.355469 7.734375 19.355469 9.308594 C 19.304688 9.847656 19.003906 10.332031 18.539062 10.609375 C 20.101562 9.980469 21.066406 9.109375 21.066406 8.183594 C 21.066406 6.253906 17 4.683594 12 4.683594 Z M 12 4.683594 "/>
<path style="fill:none;stroke-width:1;stroke-linecap:round;stroke-linejoin:round;stroke:rgb(27.058824%,25.490196%,23.529412%);stroke-opacity:1;stroke-miterlimit:4;" d="M 24 9.367188 C 14 9.367188 5.867188 12.507812 5.867188 16.367188 C 5.867188 18.703125 8.8125 20.75 13.296875 22.03125 C 13.09375 21.59375 13.070312 21.101562 13.234375 20.648438 C 13.398438 20.195312 13.742188 19.835938 14.179688 19.640625 L 14.179688 18.117188 C 14.179688 16.210938 18.578125 14.65625 24 14.65625 C 29.421875 14.65625 33.820312 16.210938 33.820312 18.117188 L 33.820312 19.726562 C 34.375 19.984375 34.75 20.515625 34.820312 21.117188 C 34.84375 21.4375 34.789062 21.757812 34.648438 22.046875 C 39.140625 20.773438 42.078125 18.71875 42.078125 16.390625 C 42.132812 12.507812 34 9.367188 24 9.367188 Z M 24 9.367188 " transform="matrix(0.5,0,0,0.5,0,0)"/>
<path style="fill-rule:nonzero;fill:rgb(74.901961%,50.980392%,33.72549%);fill-opacity:1;stroke-width:1;stroke-linecap:round;stroke-linejoin:round;stroke:rgb(27.058824%,25.490196%,23.529412%);stroke-opacity:1;stroke-miterlimit:4;" d="M 38.09375 34.210938 L 40.421875 34.210938 L 40.421875 45 L 38.09375 45 Z M 38.09375 34.210938 " transform="matrix(0.5,0,0,0.5,0,0)"/>
<path style="fill-rule:nonzero;fill:rgb(67.843137%,76.862745%,85.098039%);fill-opacity:1;stroke-width:1;stroke-linecap:round;stroke-linejoin:round;stroke:rgb(27.058824%,25.490196%,23.529412%);stroke-opacity:1;stroke-miterlimit:4;" d="M 43.929688 18.367188 C 43.414062 18.367188 43 18.789062 43 19.296875 L 43 27.117188 C 43 28.125 42.1875 28.9375 41.1875 28.9375 L 40.1875 28.9375 L 40.1875 19.296875 C 40.1875 18.789062 39.773438 18.367188 39.257812 18.367188 C 38.75 18.367188 38.328125 18.789062 38.328125 19.296875 L 38.328125 28.9375 L 37.328125 28.9375 C 36.328125 28.9375 35.523438 28.125 35.523438 27.117188 L 35.523438 19.296875 C 35.523438 18.789062 35.101562 18.367188 34.59375 18.367188 C 34.078125 18.367188 33.65625 18.789062 33.65625 19.296875 L 33.65625 26.796875 C 33.65625 29.007812 35.453125 30.796875 37.65625 30.796875 L 38.351562 30.796875 L 38.351562 34.210938 L 40.210938 34.210938 L 40.210938 30.796875 L 40.882812 30.796875 C 43.085938 30.796875 44.882812 29.007812 44.882812 26.796875 L 44.882812 19.296875 C 44.882812 19.046875 44.78125 18.8125 44.601562 18.632812 C 44.421875 18.460938 44.179688 18.367188 43.929688 18.367188 Z M 43.929688 18.367188 " transform="matrix(0.5,0,0,0.5,0,0)"/>
<path style=" stroke:none;fill-rule:nonzero;fill:rgb(100%,80.784314%,74.901961%);fill-opacity:1;" d="M 18.273438 18.363281 C 18.699219 18.363281 19.046875 18.710938 19.046875 19.136719 L 19.046875 22.5 C 18.398438 22.5 17.875 21.976562 17.875 21.328125 L 17.875 18.761719 C 17.875 18.542969 18.050781 18.363281 18.269531 18.363281 Z M 18.273438 18.363281 "/>
<path style=" stroke:none;fill-rule:nonzero;fill:rgb(100%,86.27451%,81.960784%);fill-opacity:1;" d="M 18.273438 18.363281 C 18.058594 18.363281 17.878906 18.542969 17.878906 18.761719 L 17.878906 19.71875 C 17.878906 19.5 18.058594 19.324219 18.273438 19.324219 C 18.699219 19.324219 19.046875 19.667969 19.046875 20.09375 L 19.046875 19.136719 C 19.046875 18.710938 18.699219 18.363281 18.273438 18.363281 Z M 18.273438 18.363281 "/>
<path style="fill:none;stroke-width:1;stroke-linecap:round;stroke-linejoin:round;stroke:rgb(27.058824%,25.490196%,23.529412%);stroke-opacity:1;stroke-miterlimit:4;" d="M 36.546875 36.726562 C 37.398438 36.726562 38.09375 37.421875 38.09375 38.273438 L 38.09375 45 C 36.796875 45 35.75 43.953125 35.75 42.65625 L 35.75 37.523438 C 35.75 37.085938 36.101562 36.726562 36.539062 36.726562 Z M 36.546875 36.726562 " transform="matrix(0.5,0,0,0.5,0,0)"/>
<path style=" stroke:none;fill-rule:nonzero;fill:rgb(100%,80.784314%,74.901961%);fill-opacity:1;" d="M 20.339844 19.054688 L 19.339844 19.054688 C 19.042969 19.074219 18.808594 19.316406 18.800781 19.613281 C 18.792969 19.910156 19.015625 20.164062 19.308594 20.199219 C 19.015625 20.234375 18.792969 20.488281 18.800781 20.785156 C 18.808594 21.082031 19.042969 21.324219 19.339844 21.34375 C 19.042969 21.371094 18.8125 21.621094 18.8125 21.921875 C 18.8125 22.222656 19.042969 22.472656 19.339844 22.5 L 20.339844 22.5 C 20.945312 22.5 21.433594 22.007812 21.433594 21.40625 L 21.433594 20.148438 C 21.433594 19.546875 20.945312 19.054688 20.339844 19.054688 Z M 20.339844 19.054688 "/>
<path style=" stroke:none;fill-rule:nonzero;fill:rgb(100%,86.27451%,81.960784%);fill-opacity:1;" d="M 20.339844 19.054688 L 19.339844 19.054688 C 19.023438 19.054688 18.765625 19.3125 18.765625 19.628906 C 18.769531 19.730469 18.800781 19.828125 18.855469 19.914062 C 18.957031 19.734375 19.148438 19.621094 19.355469 19.625 L 20.355469 19.625 C 20.960938 19.625 21.449219 20.117188 21.449219 20.71875 L 21.449219 20.148438 C 21.449219 19.855469 21.332031 19.574219 21.125 19.371094 C 20.914062 19.164062 20.632812 19.050781 20.339844 19.054688 Z M 20.339844 19.054688 "/>
<path style="fill:none;stroke-width:1;stroke-linecap:round;stroke-linejoin:round;stroke:rgb(27.058824%,25.490196%,23.529412%);stroke-opacity:1;stroke-miterlimit:4;" d="M 40.679688 38.109375 L 38.679688 38.109375 C 38.085938 38.148438 37.617188 38.632812 37.601562 39.226562 C 37.585938 39.820312 38.03125 40.328125 38.617188 40.398438 C 38.03125 40.46875 37.585938 40.976562 37.601562 41.570312 C 37.617188 42.164062 38.085938 42.648438 38.679688 42.6875 C 38.085938 42.742188 37.625 43.242188 37.625 43.84375 C 37.625 44.445312 38.085938 44.945312 38.679688 45 L 40.679688 45 C 41.890625 45 42.867188 44.015625 42.867188 42.8125 L 42.867188 40.296875 C 42.867188 39.09375 41.890625 38.109375 40.679688 38.109375 Z M 40.679688 38.109375 " transform="matrix(0.5,0,0,0.5,0,0)"/>
<path style="fill:none;stroke-width:1;stroke-linecap:round;stroke-linejoin:round;stroke:rgb(27.058824%,25.490196%,23.529412%);stroke-opacity:1;stroke-miterlimit:4;" d="M 38.617188 40.398438 L 40.203125 40.398438 " transform="matrix(0.5,0,0,0.5,0,0)"/>
<path style="fill:none;stroke-width:1;stroke-linecap:round;stroke-linejoin:round;stroke:rgb(27.058824%,25.490196%,23.529412%);stroke-opacity:1;stroke-miterlimit:4;" d="M 38.679688 42.6875 L 40.203125 42.6875 " transform="matrix(0.5,0,0,0.5,0,0)"/>
</g>
</svg>
