<?xml version="1.0" encoding="UTF-8"?>
<svg xmlns="http://www.w3.org/2000/svg" xmlns:xlink="http://www.w3.org/1999/xlink" width="256pt" height="256pt" viewBox="0 0 256 256" version="1.1">
<g id="surface1">
<path style=" stroke:none;fill-rule:nonzero;fill:rgb(27.45098%,27.45098%,33.333333%);fill-opacity:1;" d="M 128 220.902344 L 90.839844 220.902344 C 103.226562 240.722656 123.871094 245.675781 128 245.675781 C 132.128906 245.675781 152.773438 240.722656 165.160156 220.902344 Z M 128 220.902344 "/>
<path style=" stroke:none;fill-rule:nonzero;fill:rgb(66.666667%,50.980392%,35.294118%);fill-opacity:1;" d="M 90.839844 64 C 90.839844 64 61.933594 10.324219 45.417969 10.324219 C 22.777344 10.324219 0 43.355469 0 68.128906 C 0 84.644531 24.773438 105.289062 53.675781 109.417969 Z M 90.839844 64 "/>
<path style=" stroke:none;fill-rule:nonzero;fill:rgb(66.666667%,50.980392%,35.294118%);fill-opacity:1;" d="M 165.160156 64 C 165.160156 64 194.066406 10.324219 210.582031 10.324219 C 233.222656 10.324219 256 43.355469 256 68.128906 C 256 84.644531 231.226562 105.289062 202.324219 109.417969 Z M 165.160156 64 "/>
<path style=" stroke:none;fill-rule:nonzero;fill:rgb(84.313725%,62.745098%,33.333333%);fill-opacity:1;" d="M 161.625 47.484375 C 148.921875 40.628906 136.257812 35.097656 128 30.96875 C 119.742188 35.097656 107.078125 40.628906 94.375 47.484375 C 65.132812 63.253906 33.03125 92.648438 33.03125 130.066406 C 33.03125 179.613281 61.9375 183.742188 82.582031 216.773438 L 173.417969 216.773438 C 194.066406 183.742188 222.96875 179.613281 222.96875 130.066406 C 222.96875 92.648438 190.863281 63.253906 161.625 47.484375 Z M 161.625 47.484375 "/>
<path style=" stroke:none;fill-rule:nonzero;fill:rgb(69.019608%,52.941176%,34.509804%);fill-opacity:1;" d="M 100.242188 127.078125 C 89.761719 116.597656 74.792969 114.570312 66.8125 122.550781 C 58.832031 130.535156 60.859375 145.5 71.339844 155.980469 C 81.820312 166.460938 96.789062 168.488281 104.769531 160.507812 C 112.75 152.527344 110.722656 137.558594 100.242188 127.078125 Z M 100.242188 127.078125 "/>
<path style=" stroke:none;fill-rule:nonzero;fill:rgb(69.019608%,52.941176%,34.509804%);fill-opacity:1;" d="M 184.660156 155.980469 C 195.140625 145.5 197.167969 130.53125 189.1875 122.550781 C 181.207031 114.570312 166.238281 116.597656 155.757812 127.078125 C 145.277344 137.558594 143.25 152.523438 151.230469 160.507812 C 159.214844 168.488281 174.179688 166.460938 184.660156 155.980469 Z M 184.660156 155.980469 "/>
<path style=" stroke:none;fill-rule:nonzero;fill:rgb(48.627451%,40%,36.470588%);fill-opacity:1;" d="M 128 138.324219 C 169.992188 138.324219 188.652344 194.355469 179.324219 213.074219 C 167.539062 236.714844 144.039062 227.316406 128 227.316406 C 111.960938 227.316406 88.460938 236.714844 76.679688 213.074219 C 67.347656 194.355469 86.007812 138.324219 128 138.324219 Z M 128 138.324219 "/>
<path style=" stroke:none;fill-rule:nonzero;fill:rgb(27.45098%,27.45098%,33.333333%);fill-opacity:1;" d="M 90.839844 136.257812 C 90.839844 141.960938 86.21875 146.582031 80.515625 146.582031 C 74.816406 146.582031 70.195312 141.960938 70.195312 136.257812 C 70.195312 130.558594 74.816406 125.9375 80.515625 125.9375 C 86.21875 125.9375 90.839844 130.558594 90.839844 136.257812 Z M 90.839844 136.257812 "/>
<path style=" stroke:none;fill-rule:nonzero;fill:rgb(27.45098%,27.45098%,33.333333%);fill-opacity:1;" d="M 185.804688 136.257812 C 185.804688 141.960938 181.183594 146.582031 175.484375 146.582031 C 169.78125 146.582031 165.160156 141.960938 165.160156 136.257812 C 165.160156 130.558594 169.78125 125.9375 175.484375 125.9375 C 181.183594 125.9375 185.804688 130.558594 185.804688 136.257812 Z M 185.804688 136.257812 "/>
<path style=" stroke:none;fill-rule:nonzero;fill:rgb(27.45098%,27.45098%,33.333333%);fill-opacity:1;" d="M 136.257812 216.773438 L 119.742188 216.773438 C 110.621094 216.773438 103.226562 209.378906 103.226562 200.257812 C 103.226562 191.136719 110.621094 183.742188 119.742188 183.742188 L 136.257812 183.742188 C 145.378906 183.742188 152.773438 191.136719 152.773438 200.257812 C 152.773438 209.378906 145.378906 216.773438 136.257812 216.773438 Z M 136.257812 216.773438 "/>
</g>
</svg>
