<?xml version="1.0" encoding="UTF-8"?>
<svg xmlns="http://www.w3.org/2000/svg" xmlns:xlink="http://www.w3.org/1999/xlink" width="56pt" height="56pt" viewBox="0 0 256 256" version="1.1">
<g id="surface1">
<path style=" stroke:none;fill-rule:nonzero;fill:rgb(100%,87.058824%,71.764706%);fill-opacity:1;" d="M 156 234 C 156 234 149.875 240 128 240 C 104.875 240 100 234 100 234 C 100 234 99.570312 234.027344 100 239 C 100.667969 246.707031 112.535156 254 128 254 L 128.066406 254 C 143.457031 254 155.273438 246.707031 155.9375 239 C 156.363281 234.027344 156 234 156 234 Z M 156 234 "/>
<path style=" stroke:none;fill-rule:nonzero;fill:rgb(100%,92.156863%,82.352941%);fill-opacity:1;" d="M 241.003906 179.757812 C 239.726562 161.621094 232.859375 125.488281 213.792969 94.230469 C 174.707031 30.152344 80.261719 30.152344 41.179688 94.230469 C 22.113281 125.488281 15.246094 161.621094 13.96875 179.757812 C 13.773438 182.570312 16.53125 184.671875 19.238281 183.78125 L 20.230469 183.457031 C 22.824219 182.601562 25.507812 184.507812 25.507812 187.214844 L 25.507812 201.445312 C 25.507812 204.609375 29.074219 206.496094 31.738281 204.742188 L 42.808594 197.449219 C 45.472656 195.695312 49.039062 197.582031 49.039062 200.746094 C 49.039062 202.96875 50.878906 204.75 53.128906 204.707031 C 59.015625 204.589844 70.035156 205.371094 77.898438 211.9375 C 81.929688 215.304688 86.894531 217.273438 92.019531 217.546875 C 92.429688 236.121094 108.019531 240.246094 128 240 C 148.375 239.75 164 236.019531 164 216.800781 C 164 216.65625 163.996094 216.511719 163.992188 216.367188 C 169.546875 215.226562 174.898438 213.0625 179.765625 209.976562 C 187.292969 205.210938 196.601562 204.601562 201.839844 204.707031 C 204.09375 204.75 205.929688 202.96875 205.929688 200.746094 C 205.929688 197.582031 209.5 195.695312 212.164062 197.449219 L 223.230469 204.742188 C 225.894531 206.496094 229.464844 204.609375 229.464844 201.445312 L 229.464844 187.214844 C 229.464844 184.507812 232.144531 182.601562 234.742188 183.457031 L 235.734375 183.78125 C 238.4375 184.671875 241.199219 182.570312 241.003906 179.757812 Z M 241.003906 179.757812 "/>
<path style=" stroke:none;fill-rule:nonzero;fill:rgb(76.470588%,72.54902%,69.411765%);fill-opacity:1;" d="M 243.984375 188.609375 C 243.984375 188.695312 243.988281 188.78125 243.988281 188.867188 C 243.988281 188.78125 243.984375 188.699219 243.984375 188.609375 Z M 243.984375 188.609375 "/>
<path style=" stroke:none;fill-rule:nonzero;fill:rgb(76.470588%,72.54902%,69.411765%);fill-opacity:1;" d="M 136 218 L 139.519531 213.199219 L 136 213.199219 Z M 136 218 "/>
<path style=" stroke:none;fill-rule:nonzero;fill:rgb(76.470588%,72.54902%,69.411765%);fill-opacity:1;" d="M 178.550781 119.964844 C 174.800781 118.578125 170.84375 117.925781 166.839844 118.007812 C 160.523438 118.132812 155.351562 123.136719 154.5625 129.410156 L 144.929688 205.824219 L 171.582031 169.476562 C 176.804688 162.355469 186.75 160.867188 193.929688 166.015625 C 205 173.949219 220.488281 188.675781 232 214 L 232 186 L 244 190 C 222.601562 141.089844 191.859375 124.886719 178.550781 119.964844 Z M 178.550781 119.964844 "/>
<path style=" stroke:none;fill-rule:nonzero;fill:rgb(76.470588%,72.54902%,69.411765%);fill-opacity:1;" d="M 243.878906 185.804688 C 243.882812 185.867188 243.882812 185.929688 243.886719 185.992188 C 243.882812 185.929688 243.882812 185.867188 243.878906 185.804688 Z M 243.878906 185.804688 "/>
<path style=" stroke:none;fill-rule:nonzero;fill:rgb(76.470588%,72.54902%,69.411765%);fill-opacity:1;" d="M 243.945312 187.289062 C 243.945312 187.320312 243.949219 187.351562 243.949219 187.378906 C 243.949219 187.351562 243.945312 187.320312 243.945312 187.289062 Z M 243.945312 187.289062 "/>
<path style=" stroke:none;fill-rule:nonzero;fill:rgb(76.470588%,72.54902%,69.411765%);fill-opacity:1;" d="M 243.785156 184.273438 C 243.785156 184.285156 243.785156 184.300781 243.789062 184.316406 C 243.785156 184.300781 243.785156 184.285156 243.785156 184.273438 Z M 243.785156 184.273438 "/>
<path style=" stroke:none;fill-rule:nonzero;fill:rgb(76.470588%,72.54902%,69.411765%);fill-opacity:1;" d="M 12.210938 184.316406 C 12.214844 184.300781 12.214844 184.285156 12.214844 184.269531 C 12.214844 184.285156 12.214844 184.300781 12.210938 184.316406 Z M 12.210938 184.316406 "/>
<path style=" stroke:none;fill-rule:nonzero;fill:rgb(76.470588%,72.54902%,69.411765%);fill-opacity:1;" d="M 12.011719 188.867188 C 12.011719 188.78125 12.015625 188.695312 12.015625 188.609375 C 12.015625 188.699219 12.011719 188.78125 12.011719 188.867188 Z M 12.011719 188.867188 "/>
<path style=" stroke:none;fill-rule:nonzero;fill:rgb(76.470588%,72.54902%,69.411765%);fill-opacity:1;" d="M 12.050781 187.378906 C 12.050781 187.351562 12.054688 187.320312 12.054688 187.289062 C 12.054688 187.320312 12.050781 187.351562 12.050781 187.378906 Z M 12.050781 187.378906 "/>
<path style=" stroke:none;fill-rule:nonzero;fill:rgb(76.470588%,72.54902%,69.411765%);fill-opacity:1;" d="M 89.160156 118.007812 C 85.152344 117.925781 81.199219 118.578125 77.449219 119.964844 C 64.140625 124.886719 33.398438 141.089844 12 190 L 24 186 L 24 214 C 35.511719 188.675781 51 173.949219 62.070312 166.011719 C 69.25 160.867188 79.195312 162.355469 84.417969 169.476562 L 111.070312 205.824219 L 101.4375 129.410156 C 100.648438 123.136719 95.476562 118.132812 89.160156 118.007812 Z M 89.160156 118.007812 "/>
<path style=" stroke:none;fill-rule:nonzero;fill:rgb(76.470588%,72.54902%,69.411765%);fill-opacity:1;" d="M 12.113281 185.992188 C 12.117188 185.929688 12.121094 185.867188 12.121094 185.804688 C 12.117188 185.867188 12.117188 185.929688 12.113281 185.992188 Z M 12.113281 185.992188 "/>
<path style=" stroke:none;fill-rule:nonzero;fill:rgb(76.470588%,72.54902%,69.411765%);fill-opacity:1;" d="M 120 218 L 120 213.199219 L 116.480469 213.199219 Z M 120 218 "/>
<path style=" stroke:none;fill-rule:nonzero;fill:rgb(52.941176%,52.941176%,56.862745%);fill-opacity:1;" d="M 243.988281 188.867188 C 243.988281 188.78125 243.984375 188.695312 243.984375 188.609375 C 243.976562 188.214844 243.964844 187.804688 243.949219 187.378906 C 243.949219 187.351562 243.945312 187.320312 243.945312 187.289062 C 243.929688 186.871094 243.910156 186.4375 243.886719 185.992188 C 243.882812 185.929688 243.878906 185.867188 243.878906 185.804688 C 243.851562 185.324219 243.820312 184.828125 243.789062 184.316406 C 243.785156 184.300781 243.785156 184.285156 243.785156 184.273438 C 242.433594 164.121094 234.375 121.851562 210.9375 87.835938 C 213.40625 51.929688 211.78125 13.265625 203.707031 4.488281 C 201.820312 2.429688 199.808594 2 198.464844 2 C 190.488281 2 168.820312 26.417969 154.625 43.515625 C 154.542969 43.488281 154.460938 43.460938 154.378906 43.433594 C 137.320312 37.664062 118.679688 37.664062 101.621094 43.433594 L 101.375 43.515625 C 87.179688 26.417969 65.511719 2 57.535156 2 C 56.191406 2 54.179688 2.429688 52.289062 4.488281 C 44.21875 13.265625 42.59375 51.929688 45.0625 87.835938 C 21.625 121.851562 13.566406 164.117188 12.214844 184.269531 C 12.214844 184.285156 12.214844 184.300781 12.210938 184.316406 C 12.179688 184.828125 12.148438 185.324219 12.121094 185.804688 C 12.117188 185.867188 12.117188 185.929688 12.113281 185.992188 C 12.089844 186.4375 12.070312 186.871094 12.054688 187.289062 C 12.054688 187.320312 12.050781 187.351562 12.050781 187.382812 C 12.035156 187.804688 12.023438 188.214844 12.015625 188.609375 C 12.015625 188.699219 12.011719 188.785156 12.011719 188.871094 C 12.003906 189.257812 12 189.640625 12 190 C 33.398438 141.089844 64.140625 124.886719 77.449219 119.964844 C 81.199219 118.578125 85.15625 117.925781 89.160156 118.007812 C 95.476562 118.132812 100.648438 123.136719 101.4375 129.410156 L 111.070312 205.824219 L 112 213.199219 L 144 213.199219 L 144.929688 205.824219 L 154.5625 129.410156 C 155.351562 123.136719 160.523438 118.132812 166.839844 118.007812 C 170.847656 117.925781 174.800781 118.578125 178.550781 119.964844 C 191.859375 124.886719 222.601562 141.089844 244 190 C 244 189.640625 243.996094 189.257812 243.988281 188.867188 Z M 243.988281 188.867188 "/>
<path style=" stroke:none;fill-rule:nonzero;fill:rgb(27.45098%,27.45098%,33.333333%);fill-opacity:1;" d="M 144 211.199219 C 144 218.933594 136.835938 228 128 228 C 119.164062 228 112 218.933594 112 211.199219 C 112 203.46875 119.164062 200 128 200 C 136.835938 200 144 203.46875 144 211.199219 Z M 144 211.199219 "/>
<path style=" stroke:none;fill-rule:nonzero;fill:rgb(76.470588%,72.54902%,69.411765%);fill-opacity:1;" d="M 60 4 C 50 4 37 37 48 84 L 68.5 63.5 C 85.28125 50.3125 88.59375 28.339844 73.46875 13.28125 C 68.136719 7.976562 63.324219 4 60 4 Z M 60 4 "/>
<path style=" stroke:none;fill-rule:nonzero;fill:rgb(76.470588%,72.54902%,69.411765%);fill-opacity:1;" d="M 196 4 C 191.433594 4 184.050781 11.507812 176.378906 19.664062 C 164.902344 31.867188 169.828125 48.648438 183 59 L 208 84 C 219 37 206 4 196 4 Z M 196 4 "/>
<path style=" stroke:none;fill-rule:nonzero;fill:rgb(0%,0%,0%);fill-opacity:1;" d="M 168 124 C 163.589844 124 160 127.589844 160 132 C 160 136.410156 163.589844 140 168 140 C 172.410156 140 176 136.410156 176 132 C 176 127.589844 172.410156 124 168 124 Z M 168 124 "/>
<path style=" stroke:none;fill-rule:nonzero;fill:rgb(0%,0%,0%);fill-opacity:1;" d="M 88 124 C 83.589844 124 80 127.589844 80 132 C 80 136.410156 83.589844 140 88 140 C 92.410156 140 96 136.410156 96 132 C 96 127.589844 92.410156 124 88 124 Z M 88 124 "/>
<path style=" stroke:none;fill-rule:nonzero;fill:rgb(0%,0%,0%);fill-opacity:1;" d="M 236.179688 130.585938 C 231.445312 117.625 223.765625 100.375 212.136719 83.824219 C 220.617188 46.546875 214.65625 17.144531 205.429688 5.511719 C 201.816406 0.957031 198.308594 0 196 0 C 189.652344 0 182.582031 7.195312 171.578125 18.933594 C 167.429688 23.359375 163.140625 27.933594 159.386719 31.253906 C 154.285156 35.769531 152.339844 36 152 36 C 151.542969 36 151.105469 36.078125 150.699219 36.222656 C 143.40625 33.921875 135.917969 32.511719 128.261719 32.007812 C 128.246094 32.007812 128.226562 32.007812 128.210938 32.007812 C 128.140625 32.003906 128.070312 32.003906 128 32.003906 C 127.929688 32.003906 127.859375 32.003906 127.789062 32.007812 C 127.773438 32.007812 127.757812 32.007812 127.738281 32.007812 C 120.082031 32.511719 112.59375 33.921875 105.300781 36.222656 C 104.894531 36.078125 104.457031 36 104 36 C 103.660156 36 101.714844 35.769531 96.613281 31.253906 C 92.859375 27.933594 88.570312 23.359375 84.421875 18.933594 C 73.417969 7.195312 66.347656 0 60 0 C 57.691406 0 54.183594 0.957031 50.570312 5.511719 C 41.34375 17.144531 35.382812 46.546875 43.863281 83.824219 C 32.234375 100.375 24.554688 117.625 19.820312 130.585938 C 12.417969 150.847656 8 172.308594 8 188 C 8 189.285156 8.617188 190.492188 9.660156 191.246094 C 10.703125 191.996094 12.046875 192.203125 13.265625 191.796875 L 20 189.550781 L 20 212 C 20 213.476562 20.8125 214.832031 22.113281 215.527344 C 23.414062 216.222656 24.992188 216.148438 26.21875 215.328125 L 44 203.472656 L 44 208 C 44 209.210938 44.550781 210.355469 45.492188 211.113281 C 46.433594 211.875 47.671875 212.164062 48.855469 211.90625 C 49.175781 211.835938 81.023438 205.097656 88.34375 221.621094 C 88.34375 221.621094 88.34375 221.625 88.347656 221.628906 C 89.207031 227.558594 91.730469 232.339844 95.886719 235.914062 C 95.734375 237.070312 95.816406 238.519531 96.023438 240.429688 C 96.984375 249.304688 110.730469 256 128 256 L 128.066406 256 C 145.265625 256 158.957031 249.304688 159.914062 240.425781 C 160.121094 238.476562 160.214844 237.054688 160.085938 235.933594 C 164.257812 232.359375 166.789062 227.574219 167.652344 221.628906 C 167.65625 221.625 167.65625 221.621094 167.65625 221.621094 C 174.976562 205.097656 206.824219 211.835938 207.140625 211.90625 C 208.324219 212.167969 209.5625 211.875 210.507812 211.117188 C 211.449219 210.359375 212 209.210938 212 208 L 212 203.472656 L 229.78125 215.328125 C 231.007812 216.148438 232.585938 216.222656 233.886719 215.527344 C 235.1875 214.828125 236 213.476562 236 212 L 236 189.550781 L 242.734375 191.792969 C 243.953125 192.199219 245.296875 191.996094 246.339844 191.246094 C 247.382812 190.492188 248 189.285156 248 188 C 248 172.308594 243.582031 150.847656 236.179688 130.585938 Z M 168.675781 33.476562 C 168.222656 36.277344 168.109375 39.046875 168.351562 41.742188 C 168.417969 42.472656 168.519531 43.191406 168.640625 43.902344 C 166.15625 42.542969 163.644531 41.296875 161.105469 40.167969 C 163.414062 38.457031 165.910156 36.207031 168.675781 33.476562 Z M 94.894531 40.167969 C 92.355469 41.296875 89.84375 42.542969 87.359375 43.902344 C 87.480469 43.191406 87.582031 42.476562 87.648438 41.742188 C 87.890625 39.046875 87.777344 36.277344 87.324219 33.476562 C 90.089844 36.207031 92.585938 38.457031 94.894531 40.167969 Z M 128.066406 248 L 128 248 C 115.042969 248 106.738281 243.820312 104.550781 240.839844 C 110.445312 242.988281 118.035156 244 128 244 C 137.921875 244 145.484375 242.996094 151.367188 240.867188 C 149.164062 243.84375 140.914062 248 128.066406 248 Z M 128 224 C 121.539062 224 116 216.960938 116 211.199219 C 116 204.703125 124.390625 204 128 204 C 131.609375 204 140 204.703125 140 211.199219 C 140 216.960938 134.460938 224 128 224 Z M 233.265625 180.207031 C 232.046875 179.796875 230.703125 180.003906 229.660156 180.753906 C 228.617188 181.507812 228 182.714844 228 184 L 228 204.527344 L 210.21875 192.671875 C 208.992188 191.855469 207.414062 191.777344 206.113281 192.472656 C 204.8125 193.167969 204 194.523438 204 196 L 204 203.265625 C 195.648438 202.125 178.535156 201.074219 167.671875 209.199219 C 166.585938 196.242188 162.90625 185.339844 159.316406 174.75 C 156.257812 165.722656 153.367188 157.191406 151.960938 147.429688 C 151.644531 145.242188 149.613281 143.726562 147.429688 144.039062 C 145.242188 144.355469 143.726562 146.386719 144.042969 148.570312 C 145.554688 159.0625 148.699219 168.34375 151.738281 177.316406 C 155.988281 189.855469 160 201.695312 160 216.800781 C 160 229.609375 151.820312 235.292969 132 235.9375 L 132 231.519531 C 141.265625 229.289062 148 219.644531 148 211.199219 C 148 201.964844 140.148438 196 128 196 C 115.851562 196 108 201.964844 108 211.199219 C 108 219.644531 114.734375 229.289062 124 231.519531 L 124 235.9375 C 104.179688 235.292969 96 229.609375 96 216.800781 C 96 201 100.125 188.636719 104.496094 175.554688 C 107.308594 167.121094 110.222656 158.398438 111.9375 148.699219 C 112.324219 146.523438 110.871094 144.445312 108.699219 144.0625 C 106.523438 143.675781 104.449219 145.128906 104.0625 147.300781 C 102.445312 156.425781 99.628906 164.863281 96.90625 173.019531 C 93.199219 184.128906 89.394531 195.5625 88.3125 209.1875 C 77.445312 201.074219 60.347656 202.128906 52 203.265625 L 52 196 C 52 194.523438 51.1875 193.167969 49.886719 192.472656 C 48.585938 191.777344 47.007812 191.851562 45.78125 192.671875 L 28 204.527344 L 28 184 C 28 182.714844 27.382812 181.507812 26.339844 180.753906 C 25.296875 180.003906 23.957031 179.800781 22.734375 180.207031 L 16.1875 182.386719 C 17.988281 154.222656 32.683594 105.414062 62.929688 72.898438 C 64.433594 71.28125 64.339844 68.75 62.722656 67.242188 C 61.105469 65.738281 58.574219 65.832031 57.070312 67.449219 C 54.6875 70.011719 52.421875 72.636719 50.269531 75.308594 C 47.140625 58.269531 47.535156 44.878906 48.535156 36.242188 C 49.839844 25.027344 52.941406 15.398438 56.839844 10.484375 C 58.390625 8.523438 59.558594 8 60 8 C 60.179688 8 61.914062 8.125 66.820312 12.492188 C 67.414062 13.019531 68.027344 13.585938 68.648438 14.175781 C 68.765625 14.351562 68.890625 14.523438 69.035156 14.6875 C 76.566406 22.996094 80.449219 32.59375 79.679688 41.019531 C 79.222656 46.035156 77.109375 50.117188 73.570312 52.824219 C 73.527344 52.859375 73.484375 52.898438 73.441406 52.933594 C 73.382812 52.980469 73.324219 53.027344 73.269531 53.078125 C 73.226562 53.121094 73.1875 53.164062 73.144531 53.207031 C 73.09375 53.261719 73.039062 53.3125 72.988281 53.367188 C 72.949219 53.414062 72.914062 53.460938 72.878906 53.503906 C 72.832031 53.5625 72.785156 53.617188 72.742188 53.679688 C 72.710938 53.726562 72.679688 53.777344 72.648438 53.828125 C 72.609375 53.886719 72.566406 53.945312 72.53125 54.007812 C 72.503906 54.058594 72.476562 54.113281 72.449219 54.167969 C 72.417969 54.226562 72.382812 54.289062 72.355469 54.351562 C 72.332031 54.40625 72.3125 54.464844 72.289062 54.519531 C 72.261719 54.582031 72.234375 54.648438 72.214844 54.710938 C 72.195312 54.769531 72.179688 54.828125 72.164062 54.886719 C 72.144531 54.949219 72.125 55.015625 72.109375 55.082031 C 72.09375 55.140625 72.085938 55.199219 72.074219 55.257812 C 72.0625 55.324219 72.046875 55.390625 72.039062 55.457031 C 72.03125 55.519531 72.027344 55.578125 72.019531 55.636719 C 72.015625 55.707031 72.007812 55.773438 72.003906 55.839844 C 72 55.902344 72.003906 55.960938 72.003906 56.023438 C 72.003906 56.089844 72.003906 56.15625 72.007812 56.222656 C 72.011719 56.285156 72.019531 56.347656 72.023438 56.40625 C 72.03125 56.472656 72.035156 56.542969 72.046875 56.609375 C 72.054688 56.671875 72.070312 56.734375 72.082031 56.792969 C 72.097656 56.859375 72.105469 56.921875 72.125 56.988281 C 72.140625 57.050781 72.160156 57.113281 72.179688 57.175781 C 72.199219 57.238281 72.214844 57.300781 72.238281 57.363281 C 72.261719 57.425781 72.289062 57.488281 72.316406 57.550781 C 72.339844 57.609375 72.363281 57.667969 72.390625 57.726562 C 72.421875 57.789062 72.457031 57.847656 72.492188 57.910156 C 72.523438 57.964844 72.550781 58.023438 72.582031 58.078125 C 72.621094 58.140625 72.660156 58.195312 72.703125 58.253906 C 72.738281 58.304688 72.765625 58.355469 72.804688 58.40625 C 72.808594 58.410156 72.808594 58.414062 72.8125 58.417969 C 72.816406 58.421875 72.820312 58.425781 72.824219 58.429688 C 72.875 58.496094 72.929688 58.554688 72.984375 58.617188 C 73.03125 58.671875 73.078125 58.730469 73.128906 58.785156 C 73.1875 58.84375 73.253906 58.898438 73.316406 58.957031 C 73.367188 59.003906 73.417969 59.058594 73.476562 59.101562 C 73.542969 59.15625 73.613281 59.203125 73.679688 59.253906 C 73.738281 59.292969 73.792969 59.335938 73.851562 59.375 C 73.925781 59.421875 74.003906 59.460938 74.082031 59.503906 C 74.136719 59.535156 74.195312 59.570312 74.25 59.597656 C 74.335938 59.636719 74.421875 59.671875 74.507812 59.703125 C 74.5625 59.726562 74.617188 59.753906 74.671875 59.773438 C 74.765625 59.804688 74.859375 59.828125 74.953125 59.855469 C 75.003906 59.867188 75.054688 59.886719 75.109375 59.898438 C 75.210938 59.921875 75.316406 59.9375 75.421875 59.953125 C 75.464844 59.960938 75.507812 59.96875 75.554688 59.976562 C 75.703125 59.992188 75.855469 60 76.003906 60 C 76.214844 60 76.425781 59.984375 76.636719 59.949219 C 76.707031 59.9375 76.773438 59.914062 76.839844 59.902344 C 76.980469 59.871094 77.121094 59.84375 77.257812 59.796875 C 77.339844 59.773438 77.417969 59.730469 77.496094 59.699219 C 77.617188 59.648438 77.738281 59.605469 77.855469 59.542969 C 77.9375 59.5 78.011719 59.445312 78.089844 59.394531 C 78.195312 59.332031 78.304688 59.273438 78.40625 59.195312 C 93.722656 47.671875 110.40625 41.21875 128 40.011719 C 145.59375 41.21875 162.277344 47.671875 177.59375 59.195312 C 177.695312 59.273438 177.804688 59.332031 177.914062 59.398438 C 177.992188 59.445312 178.066406 59.503906 178.148438 59.542969 C 178.265625 59.605469 178.386719 59.648438 178.507812 59.699219 C 178.585938 59.730469 178.664062 59.773438 178.746094 59.796875 C 178.882812 59.84375 179.027344 59.871094 179.167969 59.902344 C 179.234375 59.914062 179.300781 59.941406 179.367188 59.949219 C 179.574219 59.984375 179.785156 60 179.996094 60 C 180.148438 60 180.300781 59.992188 180.449219 59.976562 C 180.492188 59.96875 180.53125 59.960938 180.574219 59.953125 C 180.679688 59.9375 180.789062 59.921875 180.894531 59.898438 C 180.945312 59.886719 180.992188 59.871094 181.039062 59.859375 C 181.136719 59.832031 181.234375 59.804688 181.332031 59.773438 C 181.382812 59.753906 181.433594 59.726562 181.488281 59.707031 C 181.574219 59.671875 181.664062 59.640625 181.75 59.597656 C 181.804688 59.570312 181.859375 59.535156 181.914062 59.507812 C 181.992188 59.464844 182.074219 59.421875 182.148438 59.375 C 182.207031 59.339844 182.257812 59.296875 182.3125 59.257812 C 182.386719 59.207031 182.457031 59.160156 182.527344 59.101562 C 182.582031 59.058594 182.632812 59.003906 182.683594 58.957031 C 182.746094 58.898438 182.8125 58.84375 182.871094 58.785156 C 182.921875 58.730469 182.96875 58.671875 183.019531 58.613281 C 183.070312 58.554688 183.128906 58.496094 183.175781 58.429688 C 183.179688 58.425781 183.183594 58.421875 183.1875 58.414062 C 183.191406 58.410156 183.195312 58.410156 183.195312 58.40625 C 183.234375 58.355469 183.265625 58.304688 183.300781 58.253906 C 183.339844 58.195312 183.382812 58.136719 183.417969 58.078125 C 183.453125 58.023438 183.480469 57.964844 183.511719 57.910156 C 183.542969 57.847656 183.578125 57.789062 183.609375 57.726562 C 183.636719 57.667969 183.660156 57.609375 183.683594 57.546875 C 183.710938 57.484375 183.738281 57.425781 183.761719 57.359375 C 183.785156 57.300781 183.800781 57.238281 183.820312 57.175781 C 183.839844 57.113281 183.863281 57.050781 183.878906 56.988281 C 183.894531 56.921875 183.90625 56.859375 183.917969 56.792969 C 183.929688 56.730469 183.945312 56.671875 183.953125 56.609375 C 183.964844 56.539062 183.96875 56.472656 183.976562 56.40625 C 183.984375 56.347656 183.992188 56.285156 183.996094 56.222656 C 183.996094 56.15625 183.996094 56.089844 183.996094 56.019531 C 183.996094 55.960938 184 55.898438 183.996094 55.839844 C 183.996094 55.773438 183.984375 55.703125 183.980469 55.636719 C 183.972656 55.578125 183.972656 55.515625 183.964844 55.457031 C 183.953125 55.390625 183.941406 55.324219 183.925781 55.257812 C 183.914062 55.199219 183.90625 55.140625 183.894531 55.082031 C 183.878906 55.015625 183.855469 54.949219 183.839844 54.886719 C 183.820312 54.828125 183.804688 54.769531 183.785156 54.710938 C 183.765625 54.644531 183.738281 54.582031 183.710938 54.519531 C 183.691406 54.464844 183.671875 54.40625 183.644531 54.351562 C 183.617188 54.289062 183.582031 54.226562 183.550781 54.164062 C 183.523438 54.113281 183.5 54.058594 183.46875 54.007812 C 183.433594 53.945312 183.394531 53.886719 183.355469 53.828125 C 183.320312 53.777344 183.292969 53.726562 183.257812 53.675781 C 183.214844 53.617188 183.167969 53.5625 183.121094 53.503906 C 183.085938 53.460938 183.050781 53.410156 183.011719 53.367188 C 182.964844 53.3125 182.910156 53.257812 182.855469 53.207031 C 182.816406 53.164062 182.777344 53.121094 182.730469 53.078125 C 182.675781 53.027344 182.617188 52.980469 182.558594 52.933594 C 182.515625 52.898438 182.476562 52.859375 182.429688 52.824219 C 178.890625 50.117188 176.777344 46.035156 176.320312 41.019531 C 175.554688 32.59375 179.433594 22.996094 186.964844 14.6875 C 187.109375 14.523438 187.238281 14.351562 187.351562 14.175781 C 187.972656 13.585938 188.585938 13.019531 189.179688 12.492188 C 194.085938 8.125 195.820312 8 196 8 C 196.441406 8 197.609375 8.523438 199.160156 10.480469 C 203.058594 15.394531 206.160156 25.027344 207.464844 36.242188 C 208.464844 44.878906 208.859375 58.269531 205.730469 75.308594 C 203.578125 72.636719 201.3125 70.007812 198.929688 67.449219 C 197.425781 65.832031 194.894531 65.738281 193.277344 67.242188 C 191.660156 68.746094 191.566406 71.277344 193.070312 72.894531 C 223.316406 105.414062 238.011719 154.222656 239.8125 182.386719 Z M 233.265625 180.207031 "/>
</g>
</svg>
